<svg xmlns="http://www.w3.org/2000/svg" width="422.515" height="386.7" viewBox="0 0 422.515 386.7">
  <path id="Soustraction_1" data-name="Soustraction 1" d="M354.925,495.942H302.579a25.854,25.854,0,0,1-7.851-1.1,16.31,16.31,0,0,1-5.923-3.306,26.459,26.459,0,0,1-7.163-9.918l-13.465-38.128V223.836l35.5,113.419L339.5,122.364a14.924,14.924,0,0,1,1.688-5.3,11.522,11.522,0,0,1,3.409-3.788c2.834-2.011,6.866-3.031,11.984-3.031H424.9a11.709,11.709,0,0,1,8.54,3.582,11.111,11.111,0,0,1,3.582,7.989l-.551,3.857L376.413,477.76a20.959,20.959,0,0,1-6.887,12.948,19.541,19.541,0,0,1-6.543,3.926A23.844,23.844,0,0,1,354.925,495.942Zm-204.972,0H97.608a25.337,25.337,0,0,1-8.4-1.309,17.988,17.988,0,0,1-6.474-3.926,21.685,21.685,0,0,1-4.408-5.855,22.562,22.562,0,0,1-2.2-7.094L16.06,125.671a12.278,12.278,0,0,1-.551-3.857,11.11,11.11,0,0,1,3.581-7.989,11.111,11.111,0,0,1,7.989-3.582H95.4c5.119,0,9.151,1.02,11.984,3.031a11.521,11.521,0,0,1,3.409,3.788,14.924,14.924,0,0,1,1.688,5.3L148.3,337.254l35.6-113.723V443.218l-13.56,38.4a21.125,21.125,0,0,1-7.576,10.745C159.381,494.737,155.071,495.942,149.953,495.942Z" transform="translate(-15.009 -109.742)" fill="#fff" stroke="rgba(0,0,0,0)" stroke-miterlimit="10" stroke-width="1"/>
</svg>
